<?xml version="1.0" encoding="UTF-8"?>
<!DOCTYPE svg
PUBLIC "-//W3C//DTD SVG 1.1//EN"
       "http://www.w3.org/Graphics/SVG/1.1/DTD/svg11.dtd">
<svg viewBox="61 2 675 342" width="614px" height="340px" xmlns="http://www.w3.org/2000/svg" version="1.1">
   <line x1="576" y1="127" x2="566" y2="127" style="stroke:#333;stroke-width:1;"/>
   <line x1="461" y1="157" x2="451" y2="157" style="stroke:#333;stroke-width:1;"/>
   <line x1="566" y1="127" x2="461" y2="157" style="stroke:#333;stroke-width:1;"/>
   <line x1="568.5" y1="127" x2="572.03553390593" y2="130.53553390593" style="stroke:#333;stroke-width:2;"/>
   <line x1="568.5" y1="127" x2="572.03553390593" y2="123.46446609407" style="stroke:#333;stroke-width:2;"/>
   <line x1="456" y1="157" x2="459.53553390593" y2="160.53553390593" style="stroke:#333;stroke-width:2;"/>
   <line x1="456" y1="157" x2="459.53553390593" y2="153.46446609407" style="stroke:#333;stroke-width:2;"/>
   <line x1="576" y1="107" x2="566" y2="107" style="stroke:#333;stroke-width:1;"/>
   <line x1="566" y1="47" x2="576" y2="47" style="stroke:#333;stroke-width:1;"/>
   <line x1="566" y1="107" x2="566" y2="47" style="stroke:#333;stroke-width:1;"/>
   <line x1="568.5" y1="107" x2="572.03553390593" y2="110.53553390593" style="stroke:#333;stroke-width:2;"/>
   <line x1="568.5" y1="107" x2="572.03553390593" y2="103.46446609407" style="stroke:#333;stroke-width:2;"/>
   <line x1="571" y1="47" x2="567.46446609407" y2="50.535533905933" style="stroke:#333;stroke-width:2;"/>
   <line x1="571" y1="47" x2="567.46446609407" y2="43.464466094067" style="stroke:#333;stroke-width:2;"/>
   <line x1="190" y1="72" x2="200" y2="72" style="stroke:#0bf;stroke-width:1;"/>
   <line x1="329" y1="157" x2="339" y2="157" style="stroke:#0bf;stroke-width:1;"/>
   <line x1="200" y1="72" x2="329" y2="157" style="stroke:#0bf;stroke-width:1;"/>
   <line x1="197.5" y1="72" x2="193.96446609407" y2="75.535533905933" style="stroke:#0bf;stroke-width:2;"/>
   <line x1="197.5" y1="72" x2="193.96446609407" y2="68.464466094067" style="stroke:#0bf;stroke-width:2;"/>
   <line x1="334" y1="157" x2="330.46446609407" y2="160.53553390593" style="stroke:#0bf;stroke-width:2;"/>
   <line x1="334" y1="157" x2="330.46446609407" y2="153.46446609407" style="stroke:#0bf;stroke-width:2;"/>
   <line x1="190" y1="52" x2="200" y2="52" style="stroke:#0b0;stroke-width:1;"/>
   <line x1="566" y1="47" x2="576" y2="47" style="stroke:#0b0;stroke-width:1;"/>
   <line x1="200" y1="52" x2="566" y2="47" style="stroke:#0b0;stroke-width:1;"/>
   <line x1="197.5" y1="52" x2="193.96446609407" y2="55.535533905933" style="stroke:#0b0;stroke-width:2;"/>
   <line x1="197.5" y1="52" x2="193.96446609407" y2="48.464466094067" style="stroke:#0b0;stroke-width:2;"/>
   <line x1="571" y1="47" x2="567.46446609407" y2="50.535533905933" style="stroke:#0b0;stroke-width:2;"/>
   <line x1="571" y1="47" x2="567.46446609407" y2="43.464466094067" style="stroke:#0b0;stroke-width:2;"/>
   <line x1="526" y1="285" x2="516" y2="285" style="stroke:#333;stroke-width:1;"/>
   <line x1="566" y1="47" x2="576" y2="47" style="stroke:#333;stroke-width:1;"/>
   <line x1="516" y1="285" x2="566" y2="47" style="stroke:#333;stroke-width:1;"/>
   <line x1="518.5" y1="285" x2="522.03553390593" y2="288.53553390593" style="stroke:#333;stroke-width:2;"/>
   <line x1="518.5" y1="285" x2="522.03553390593" y2="281.46446609407" style="stroke:#333;stroke-width:2;"/>
   <line x1="571" y1="47" x2="567.46446609407" y2="50.535533905933" style="stroke:#333;stroke-width:2;"/>
   <line x1="571" y1="47" x2="567.46446609407" y2="43.464466094067" style="stroke:#333;stroke-width:2;"/>
   <line x1="526" y1="305" x2="516" y2="305" style="stroke:#b0b;stroke-width:1;"/>
   <line x1="461" y1="157" x2="451" y2="157" style="stroke:#b0b;stroke-width:1;"/>
   <line x1="516" y1="305" x2="461" y2="157" style="stroke:#b0b;stroke-width:1;"/>
   <line x1="518.5" y1="305" x2="522.03553390593" y2="308.53553390593" style="stroke:#b0b;stroke-width:2;"/>
   <line x1="518.5" y1="305" x2="522.03553390593" y2="301.46446609407" style="stroke:#b0b;stroke-width:2;"/>
   <line x1="456" y1="157" x2="459.53553390593" y2="160.53553390593" style="stroke:#b0b;stroke-width:2;"/>
   <line x1="456" y1="157" x2="459.53553390593" y2="153.46446609407" style="stroke:#b0b;stroke-width:2;"/>
   <line x1="188" y1="286" x2="198" y2="286" style="stroke:#cb0;stroke-width:1;"/>
   <line x1="329" y1="157" x2="339" y2="157" style="stroke:#cb0;stroke-width:1;"/>
   <line x1="198" y1="286" x2="329" y2="157" style="stroke:#cb0;stroke-width:1;"/>
   <line x1="195.5" y1="286" x2="191.96446609407" y2="289.53553390593" style="stroke:#cb0;stroke-width:2;"/>
   <line x1="195.5" y1="286" x2="191.96446609407" y2="282.46446609407" style="stroke:#cb0;stroke-width:2;"/>
   <line x1="334" y1="157" x2="330.46446609407" y2="160.53553390593" style="stroke:#cb0;stroke-width:2;"/>
   <line x1="334" y1="157" x2="330.46446609407" y2="153.46446609407" style="stroke:#cb0;stroke-width:2;"/>
   <line x1="188" y1="266" x2="198" y2="266" style="stroke:#cb0;stroke-width:1;"/>
   <line x1="329" y1="157" x2="339" y2="157" style="stroke:#cb0;stroke-width:1;"/>
   <line x1="198" y1="266" x2="329" y2="157" style="stroke:#cb0;stroke-width:1;"/>
   <line x1="195.5" y1="266" x2="191.96446609407" y2="269.53553390593" style="stroke:#cb0;stroke-width:2;"/>
   <line x1="195.5" y1="266" x2="191.96446609407" y2="262.46446609407" style="stroke:#cb0;stroke-width:2;"/>
   <line x1="334" y1="157" x2="330.46446609407" y2="160.53553390593" style="stroke:#cb0;stroke-width:2;"/>
   <line x1="334" y1="157" x2="330.46446609407" y2="153.46446609407" style="stroke:#cb0;stroke-width:2;"/>
   <rect width="112" height="20" x="576" y="17" style="fill:#007;stroke:black;"/>
   <text width="112" height="20" x="581" y="31" style="fill:#fff;" font-family="Arial" font-size="16px"> tweet</text>
   <rect width="112" height="20" x="576" y="37" style="fill:#aea;stroke:black;"/>
   <text width="112" height="20" x="581" y="51" style="fill:black;" font-family="Arial" font-size="16px">id</text>
   <rect width="112" height="20" x="576" y="57" style="fill:none;stroke:black;"/>
   <text width="112" height="20" x="581" y="71" style="fill:black;" font-family="Arial" font-size="16px">text</text>
   <rect width="112" height="20" x="576" y="77" style="fill:none;stroke:black;"/>
   <text width="112" height="20" x="581" y="91" style="fill:black;" font-family="Arial" font-size="16px">time</text>
   <rect width="112" height="20" x="576" y="97" style="fill:none;stroke:black;"/>
   <text width="112" height="20" x="581" y="111" style="fill:black;" font-family="Arial" font-size="16px">mention_id</text>
   <rect width="112" height="20" x="576" y="117" style="fill:none;stroke:black;"/>
   <text width="112" height="20" x="581" y="131" style="fill:black;" font-family="Arial" font-size="16px">user_id</text>
   <rect width="112" height="20" x="78" y="22" style="fill:#007;stroke:black;"/>
   <text width="112" height="20" x="83" y="36" style="fill:#fff;" font-family="Arial" font-size="16px"> tweet_favs</text>
   <rect width="112" height="20" x="78" y="42" style="fill:none;stroke:black;"/>
   <text width="112" height="20" x="83" y="56" style="fill:black;" font-family="Arial" font-size="16px">tweet_id</text>
   <rect width="112" height="20" x="78" y="62" style="fill:none;stroke:black;"/>
   <text width="112" height="20" x="83" y="76" style="fill:black;" font-family="Arial" font-size="16px">favs_id</text>
   <rect width="112" height="20" x="526" y="255" style="fill:#007;stroke:black;"/>
   <text width="112" height="20" x="531" y="269" style="fill:#fff;" font-family="Arial" font-size="16px"> tweet_retweets</text>
   <rect width="112" height="20" x="526" y="275" style="fill:none;stroke:black;"/>
   <text width="112" height="20" x="531" y="289" style="fill:black;" font-family="Arial" font-size="16px">tweet_id</text>
   <rect width="112" height="20" x="526" y="295" style="fill:none;stroke:black;"/>
   <text width="112" height="20" x="531" y="309" style="fill:black;" font-family="Arial" font-size="16px">retweets_id</text>
   <rect width="112" height="20" x="339" y="127" style="fill:#007;stroke:black;"/>
   <text width="112" height="20" x="344" y="141" style="fill:#fff;" font-family="Arial" font-size="16px"> user</text>
   <rect width="112" height="20" x="339" y="147" style="fill:#aea;stroke:black;"/>
   <text width="112" height="20" x="344" y="161" style="fill:black;" font-family="Arial" font-size="16px">id</text>
   <rect width="112" height="20" x="339" y="167" style="fill:none;stroke:black;"/>
   <text width="112" height="20" x="344" y="181" style="fill:black;" font-family="Arial" font-size="16px">biography</text>
   <rect width="112" height="20" x="339" y="187" style="fill:none;stroke:black;"/>
   <text width="112" height="20" x="344" y="201" style="fill:black;" font-family="Arial" font-size="16px">birthday</text>
   <rect width="112" height="20" x="339" y="207" style="fill:none;stroke:black;"/>
   <text width="112" height="20" x="344" y="221" style="fill:black;" font-family="Arial" font-size="16px">first_name</text>
   <rect width="112" height="20" x="339" y="227" style="fill:none;stroke:black;"/>
   <text width="112" height="20" x="344" y="241" style="fill:black;" font-family="Arial" font-size="16px">last_name</text>
   <rect width="112" height="20" x="339" y="247" style="fill:none;stroke:black;"/>
   <text width="112" height="20" x="344" y="261" style="fill:black;" font-family="Arial" font-size="16px">mail</text>
   <rect width="112" height="20" x="339" y="267" style="fill:none;stroke:black;"/>
   <text width="112" height="20" x="344" y="281" style="fill:black;" font-family="Arial" font-size="16px">password</text>
   <rect width="112" height="20" x="339" y="287" style="fill:none;stroke:black;"/>
   <text width="112" height="20" x="344" y="301" style="fill:black;" font-family="Arial" font-size="16px">reg_date</text>
   <rect width="112" height="20" x="339" y="307" style="fill:none;stroke:black;"/>
   <text width="112" height="20" x="344" y="321" style="fill:black;" font-family="Arial" font-size="16px">username</text>
   <rect width="112" height="20" x="76" y="236" style="fill:#007;stroke:black;"/>
   <text width="112" height="20" x="81" y="250" style="fill:#fff;" font-family="Arial" font-size="16px"> user_followings</text>
   <rect width="112" height="20" x="76" y="256" style="fill:none;stroke:black;"/>
   <text width="112" height="20" x="81" y="270" style="fill:black;" font-family="Arial" font-size="16px">user_id</text>
   <rect width="112" height="20" x="76" y="276" style="fill:none;stroke:black;"/>
   <text width="112" height="20" x="81" y="290" style="fill:black;" font-family="Arial" font-size="16px">followings_id</text>
</svg>
